<mxfile host="app.diagrams.net" modified="2023-11-07T14:49:22.690Z" agent="Mozilla/5.0 (X11; Linux x86_64) AppleWebKit/537.36 (KHTML, like Gecko) Chrome/118.0.0.0 Safari/537.36" etag="29U6O1uHU2Mu1xXP3N2R" version="22.0.8" type="google">
  <diagram name="004-semantic-translation-federated" id="O0EzCrE9_i2seC9WDiSg">
    <mxGraphModel grid="1" page="1" gridSize="10" guides="1" tooltips="1" connect="1" arrows="1" fold="1" pageScale="1" pageWidth="827" pageHeight="1169" math="0" shadow="0">
      <root>
        <mxCell id="0" />
        <mxCell id="1" parent="0" />
        <mxCell id="VSZ_r1YbwB4cjB5XSmfl-29" value="" style="rounded=0;whiteSpace=wrap;html=1;sketch=1;curveFitting=1;jiggle=2;" vertex="1" parent="1">
          <mxGeometry x="260" y="370" width="270" height="130" as="geometry" />
        </mxCell>
        <mxCell id="VSZ_r1YbwB4cjB5XSmfl-30" value="Data" style="shape=cylinder3;whiteSpace=wrap;html=1;boundedLbl=1;backgroundOutline=1;size=15;sketch=1;curveFitting=1;jiggle=2;shadow=1;" vertex="1" parent="1">
          <mxGeometry x="300" y="395" width="60" height="80" as="geometry" />
        </mxCell>
        <mxCell id="VSZ_r1YbwB4cjB5XSmfl-31" value="&lt;b&gt;Domain semantics&lt;/b&gt;" style="shape=document;whiteSpace=wrap;html=1;boundedLbl=1;shadow=1;sketch=1;curveFitting=1;jiggle=2;fillColor=#ffe6cc;strokeColor=#d79b00;" vertex="1" parent="1">
          <mxGeometry x="390" y="400" width="120" height="80" as="geometry" />
        </mxCell>
        <mxCell id="VSZ_r1YbwB4cjB5XSmfl-32" value="" style="rounded=0;whiteSpace=wrap;html=1;sketch=1;curveFitting=1;jiggle=2;" vertex="1" parent="1">
          <mxGeometry x="260" y="560" width="270" height="130" as="geometry" />
        </mxCell>
        <mxCell id="VSZ_r1YbwB4cjB5XSmfl-33" value="Data" style="shape=cylinder3;whiteSpace=wrap;html=1;boundedLbl=1;backgroundOutline=1;size=15;sketch=1;curveFitting=1;jiggle=2;shadow=1;" vertex="1" parent="1">
          <mxGeometry x="300" y="585" width="60" height="80" as="geometry" />
        </mxCell>
        <mxCell id="VSZ_r1YbwB4cjB5XSmfl-34" style="edgeStyle=orthogonalEdgeStyle;rounded=0;orthogonalLoop=1;jettySize=auto;html=1;entryX=0.25;entryY=1;entryDx=0;entryDy=0;sketch=1;curveFitting=1;jiggle=2;exitX=1;exitY=0.5;exitDx=0;exitDy=0;" edge="1" parent="1" source="VSZ_r1YbwB4cjB5XSmfl-55" target="VSZ_r1YbwB4cjB5XSmfl-38">
          <mxGeometry relative="1" as="geometry" />
        </mxCell>
        <mxCell id="VSZ_r1YbwB4cjB5XSmfl-35" value="&lt;b&gt;Domain semantics&lt;/b&gt;" style="shape=document;whiteSpace=wrap;html=1;boundedLbl=1;shadow=1;sketch=1;curveFitting=1;jiggle=2;fillColor=#ffe6cc;strokeColor=#d79b00;" vertex="1" parent="1">
          <mxGeometry x="390" y="590" width="120" height="80" as="geometry" />
        </mxCell>
        <mxCell id="VSZ_r1YbwB4cjB5XSmfl-36" style="edgeStyle=orthogonalEdgeStyle;rounded=0;orthogonalLoop=1;jettySize=auto;html=1;exitX=0.917;exitY=1;exitDx=0;exitDy=0;entryX=0;entryY=0.5;entryDx=0;entryDy=0;exitPerimeter=0;sketch=1;curveFitting=1;jiggle=2;dashed=1;" edge="1" parent="1" source="VSZ_r1YbwB4cjB5XSmfl-38" target="VSZ_r1YbwB4cjB5XSmfl-46">
          <mxGeometry relative="1" as="geometry" />
        </mxCell>
        <mxCell id="VSZ_r1YbwB4cjB5XSmfl-37" style="edgeStyle=orthogonalEdgeStyle;rounded=0;orthogonalLoop=1;jettySize=auto;html=1;exitX=0.75;exitY=1;exitDx=0;exitDy=0;entryX=0;entryY=0.5;entryDx=0;entryDy=0;sketch=1;curveFitting=1;jiggle=2;dashed=1;" edge="1" parent="1" source="VSZ_r1YbwB4cjB5XSmfl-38" target="VSZ_r1YbwB4cjB5XSmfl-49">
          <mxGeometry relative="1" as="geometry">
            <Array as="points">
              <mxPoint x="700" y="325" />
              <mxPoint x="700" y="625" />
            </Array>
          </mxGeometry>
        </mxCell>
        <mxCell id="VSZ_r1YbwB4cjB5XSmfl-38" value="" style="rounded=0;whiteSpace=wrap;html=1;sketch=1;curveFitting=1;jiggle=2;" vertex="1" parent="1">
          <mxGeometry x="550" y="195" width="180" height="130" as="geometry" />
        </mxCell>
        <mxCell id="VSZ_r1YbwB4cjB5XSmfl-39" value="&lt;b&gt;Unified semantics&lt;/b&gt;" style="shape=document;whiteSpace=wrap;html=1;boundedLbl=1;shadow=1;sketch=1;curveFitting=1;jiggle=2;fillColor=#ffe6cc;strokeColor=#d79b00;" vertex="1" parent="1">
          <mxGeometry x="580" y="225" width="120" height="80" as="geometry" />
        </mxCell>
        <mxCell id="VSZ_r1YbwB4cjB5XSmfl-40" value="&lt;b&gt;Data Producer&lt;/b&gt;" style="text;html=1;strokeColor=none;fillColor=none;align=center;verticalAlign=middle;whiteSpace=wrap;rounded=0;" vertex="1" parent="1">
          <mxGeometry x="260" y="330" width="270" height="30" as="geometry" />
        </mxCell>
        <mxCell id="VSZ_r1YbwB4cjB5XSmfl-41" value="&lt;b&gt;Data Producer&lt;/b&gt;" style="text;html=1;strokeColor=none;fillColor=none;align=center;verticalAlign=middle;whiteSpace=wrap;rounded=0;" vertex="1" parent="1">
          <mxGeometry x="260" y="520" width="270" height="30" as="geometry" />
        </mxCell>
        <mxCell id="VSZ_r1YbwB4cjB5XSmfl-42" value="" style="shape=umlActor;verticalLabelPosition=bottom;verticalAlign=top;html=1;outlineConnect=0;" vertex="1" parent="1">
          <mxGeometry x="570" y="90" width="30" height="60" as="geometry" />
        </mxCell>
        <mxCell id="VSZ_r1YbwB4cjB5XSmfl-43" value="" style="shape=umlActor;verticalLabelPosition=bottom;verticalAlign=top;html=1;outlineConnect=0;" vertex="1" parent="1">
          <mxGeometry x="630" y="90" width="30" height="60" as="geometry" />
        </mxCell>
        <mxCell id="VSZ_r1YbwB4cjB5XSmfl-44" value="" style="shape=umlActor;verticalLabelPosition=bottom;verticalAlign=top;html=1;outlineConnect=0;" vertex="1" parent="1">
          <mxGeometry x="690" y="90" width="30" height="60" as="geometry" />
        </mxCell>
        <mxCell id="VSZ_r1YbwB4cjB5XSmfl-45" value="&lt;b&gt;Modelling Team&lt;/b&gt;" style="text;html=1;strokeColor=none;fillColor=none;align=center;verticalAlign=middle;whiteSpace=wrap;rounded=0;" vertex="1" parent="1">
          <mxGeometry x="550" y="160" width="180" height="30" as="geometry" />
        </mxCell>
        <mxCell id="VSZ_r1YbwB4cjB5XSmfl-46" value="" style="rounded=0;whiteSpace=wrap;html=1;sketch=1;curveFitting=1;jiggle=2;" vertex="1" parent="1">
          <mxGeometry x="750" y="370" width="140" height="130" as="geometry" />
        </mxCell>
        <mxCell id="VSZ_r1YbwB4cjB5XSmfl-47" value="Data" style="shape=cylinder3;whiteSpace=wrap;html=1;boundedLbl=1;backgroundOutline=1;size=15;sketch=1;curveFitting=1;jiggle=2;shadow=1;" vertex="1" parent="1">
          <mxGeometry x="790" y="385" width="60" height="80" as="geometry" />
        </mxCell>
        <mxCell id="VSZ_r1YbwB4cjB5XSmfl-48" value="&lt;b&gt;Data Consumer&lt;/b&gt;" style="text;html=1;strokeColor=none;fillColor=none;align=center;verticalAlign=middle;whiteSpace=wrap;rounded=0;" vertex="1" parent="1">
          <mxGeometry x="750" y="330" width="140" height="30" as="geometry" />
        </mxCell>
        <mxCell id="VSZ_r1YbwB4cjB5XSmfl-49" value="" style="rounded=0;whiteSpace=wrap;html=1;sketch=1;curveFitting=1;jiggle=2;" vertex="1" parent="1">
          <mxGeometry x="750" y="560" width="140" height="130" as="geometry" />
        </mxCell>
        <mxCell id="VSZ_r1YbwB4cjB5XSmfl-50" value="Data" style="shape=cylinder3;whiteSpace=wrap;html=1;boundedLbl=1;backgroundOutline=1;size=15;sketch=1;curveFitting=1;jiggle=2;shadow=1;" vertex="1" parent="1">
          <mxGeometry x="790" y="585" width="60" height="80" as="geometry" />
        </mxCell>
        <mxCell id="VSZ_r1YbwB4cjB5XSmfl-51" value="&lt;b&gt;Data Consumer&lt;/b&gt;" style="text;html=1;strokeColor=none;fillColor=none;align=center;verticalAlign=middle;whiteSpace=wrap;rounded=0;" vertex="1" parent="1">
          <mxGeometry x="750" y="520" width="140" height="30" as="geometry" />
        </mxCell>
        <mxCell id="VSZ_r1YbwB4cjB5XSmfl-52" value="Federated semantic translation" style="text;strokeColor=none;fillColor=none;html=1;fontSize=24;fontStyle=1;verticalAlign=middle;align=center;" vertex="1" parent="1">
          <mxGeometry x="300" y="20" width="630" height="40" as="geometry" />
        </mxCell>
        <mxCell id="VSZ_r1YbwB4cjB5XSmfl-53" style="edgeStyle=orthogonalEdgeStyle;rounded=0;orthogonalLoop=1;jettySize=auto;html=1;entryX=0.1;entryY=1.023;entryDx=0;entryDy=0;entryPerimeter=0;sketch=1;curveFitting=1;jiggle=2;" edge="1" parent="1" source="VSZ_r1YbwB4cjB5XSmfl-54" target="VSZ_r1YbwB4cjB5XSmfl-38">
          <mxGeometry relative="1" as="geometry">
            <mxPoint x="570.3" y="355" as="targetPoint" />
          </mxGeometry>
        </mxCell>
        <mxCell id="VSZ_r1YbwB4cjB5XSmfl-54" value="" style="shape=image;html=1;verticalLabelPosition=bottom;verticalAlign=top;imageAspect=1;aspect=fixed;image=img/clipart/Gear_128x128.png" vertex="1" parent="1">
          <mxGeometry x="500" y="410" width="42.63" height="50" as="geometry" />
        </mxCell>
        <mxCell id="VSZ_r1YbwB4cjB5XSmfl-55" value="" style="shape=image;html=1;verticalLabelPosition=bottom;verticalAlign=top;imageAspect=1;aspect=fixed;image=img/clipart/Gear_128x128.png" vertex="1" parent="1">
          <mxGeometry x="500" y="600" width="42.63" height="50" as="geometry" />
        </mxCell>
        <mxCell id="VSZ_r1YbwB4cjB5XSmfl-56" value="" style="shape=flexArrow;endArrow=classic;html=1;rounded=0;sketch=1;curveFitting=1;jiggle=2;" edge="1" parent="1">
          <mxGeometry width="50" height="50" relative="1" as="geometry">
            <mxPoint x="615" y="434.5" as="sourcePoint" />
            <mxPoint x="675" y="434.5" as="targetPoint" />
          </mxGeometry>
        </mxCell>
        <mxCell id="VSZ_r1YbwB4cjB5XSmfl-57" value="" style="shape=flexArrow;endArrow=classic;html=1;rounded=0;sketch=1;curveFitting=1;jiggle=2;" edge="1" parent="1">
          <mxGeometry width="50" height="50" relative="1" as="geometry">
            <mxPoint x="615" y="620" as="sourcePoint" />
            <mxPoint x="675" y="620" as="targetPoint" />
          </mxGeometry>
        </mxCell>
        <mxCell id="VSZ_r1YbwB4cjB5XSmfl-58" value="&lt;div&gt;&lt;i&gt;This work is licensed under a&lt;/i&gt;&lt;/div&gt;&lt;div&gt;&lt;b&gt;&lt;i&gt;Creative Commons Attribution 4.0 International License&lt;/i&gt;&lt;/b&gt;&lt;/div&gt;" style="text;html=1;strokeColor=none;fillColor=none;align=center;verticalAlign=middle;whiteSpace=wrap;rounded=0;fontSize=20;fontFamily=Architects Daughter;" vertex="1" parent="1">
          <mxGeometry x="260" y="730" width="640" height="60" as="geometry" />
        </mxCell>
      </root>
    </mxGraphModel>
  </diagram>
</mxfile>
